<svg width="125" height="25" fill="none" xmlns="http://www.w3.org/2000/svg"><path d="M13.046.678v9.598a.69.69 0 01-.696.68h-1.393a.69.69 0 01-.696-.68V3.754c0-.487-.506-.82-.965-.634L.436 6.675A.69.69 0 000 7.309V22.98c0 .378.316.68.696.68h8.86a.69.69 0 00.697-.68v-5.99a.69.69 0 01.696-.68h1.393a.69.69 0 01.696.68v5.99c0 .378.316.68.696.68h8.86a.69.69 0 00.697-.68V4.24a.69.69 0 00-.435-.634L13.995.052a.69.69 0 00-.95.626z" fill="#fff"/><path d="M47.365 20.676v2.403a.557.557 0 01-.562.549H35.965a.557.557 0 01-.562-.549V6.271c0-.301.253-.548.562-.548h2.753c.308 0 .561.247.561.548V20.12h7.524a.564.564 0 01.562.556zM62.364 20.84v2.304a.49.49 0 01-.498.487h-1.337c-1.472 0-2.27-.48-2.508-1.592-.024-.109-.174-.14-.237-.047-.712 1.167-2.184 1.917-4.193 1.917-2.935 0-4.795-1.584-4.795-4.042 0-2.504 1.939-4.042 5.657-4.042h3.038v-.386c0-1.43-.736-2.094-2.279-2.094a4.769 4.769 0 00-3.093 1.128c-.206.17-.514.178-.704-.015l-1.48-1.523a.473.473 0 01-.007-.664c1.305-1.283 3.307-2.04 5.577-2.04 3.592 0 5.578 1.893 5.578 5.061v4.985c0 .432.134.564.498.564h.783zm-4.873-2.302v-.41h-2.666c-1.654 0-2.358.51-2.358 1.538 0 .997.68 1.561 2.018 1.561 1.827 0 3.006-1.074 3.006-2.69zM80.3 6.271V23.08a.557.557 0 01-.561.549h-2.73a.557.557 0 01-.561-.549v-6.87h-7.556a.557.557 0 00-.561.549v6.321a.557.557 0 01-.562.549h-2.753a.557.557 0 01-.562-.549V6.271c0-.301.253-.548.562-.548h2.753c.308 0 .562.247.562.548v6.46h7.555a.557.557 0 00.562-.548V6.271c0-.301.253-.548.561-.548h2.73c.316 0 .561.247.561.548zM110.542 11.08v12.056c0 .27-.229.495-.506.495h-2.627a.504.504 0 01-.506-.495v-1.422c-.736 1.383-2.334 2.28-4.296 2.28-2.8 0-4.375-1.762-4.375-4.861V11.08c0-.271.23-.495.507-.495h2.705c.277 0 .507.224.507.495v7.101c0 1.685.554 2.504 2.096 2.504 1.701 0 2.777-.974 2.777-2.735v-6.87c0-.271.229-.495.506-.495h2.706c.285 0 .506.224.506.495zM112.957 21.297l1.178-1.553a.548.548 0 01.768-.109c1.06.82 2.531 1.337 3.987 1.337 1.313 0 2.017-.433 2.017-1.097 0-.564-.474-.92-1.598-1.175l-2.223-.51c-2.8-.664-3.9-1.947-3.9-3.732 0-2.481 2.096-4.22 5.633-4.22 2.12 0 3.987.626 5.221 1.646a.533.533 0 01.095.734l-1.202 1.6a.557.557 0 01-.752.116c-1.139-.734-2.294-1.051-3.41-1.051-1.281 0-1.883.41-1.883 1.051 0 .464.396.796 1.575 1.051l2.302.533c2.856.665 3.876 1.948 3.876 3.764 0 2.635-2.12 4.32-5.759 4.32-2.421 0-4.525-.742-5.862-2.002a.508.508 0 01-.063-.703zM96.327 20.84v2.304a.49.49 0 01-.498.487h-1.337c-1.472 0-2.27-.48-2.508-1.592-.024-.109-.174-.14-.237-.047-.713 1.167-2.184 1.917-4.194 1.917-2.935 0-4.794-1.584-4.794-4.042 0-2.504 1.939-4.042 5.657-4.042h3.038v-.386c0-1.43-.736-2.094-2.279-2.094a4.769 4.769 0 00-3.093 1.128c-.206.17-.514.178-.704-.015l-1.48-1.523a.473.473 0 01-.007-.664c1.305-1.283 3.306-2.04 5.577-2.04 3.592 0 5.578 1.893 5.578 5.061v4.985c0 .432.134.564.498.564h.783zm-4.873-2.302v-.41H88.78c-1.654 0-2.358.51-2.358 1.538 0 .997.68 1.561 2.018 1.561 1.835 0 3.014-1.074 3.014-2.69z" fill="#012D26"/></svg>