<svg fill="none" height="88" width="88" xmlns="http://www.w3.org/2000/svg"><path d="M88 0H0v88h88z" fill="#fff"/><g fill="#3ecfaf"><path d="M5.677 2.839H2.84v2.838h2.838z"/><path d="M8.516 2.839H5.677v2.838h2.84z"/><path d="M11.355 2.839H8.516v2.838h2.839z"/><path d="M14.194 2.839h-2.84v2.838h2.84z"/><path d="M17.032 2.839h-2.838v2.838h2.838zm2.839 0h-2.839v2.838h2.839z"/><path d="M22.71 2.839h-2.84v2.838h2.839zm14.193 0h-2.839v2.838h2.84zm8.517 0h-2.84v2.838h2.84zm8.515 0h-2.838v2.838h2.838zm2.839 0h-2.839v2.838h2.84z"/><path d="M59.613 2.839h-2.839v2.838h2.839zm8.516 0H65.29v2.838h2.839zm2.839 0h-2.839v2.838h2.839zm2.838 0h-2.838v2.838h2.838zm2.839 0h-2.839v2.838h2.84z"/><path d="M79.484 2.839h-2.839v2.838h2.839z"/><path d="M82.323 2.839h-2.84v2.838h2.84zm2.838 0h-2.838v2.838h2.838zM5.677 5.677H2.84v2.84h2.838zm17.033 0h-2.84v2.84h2.839zm8.516 0h-2.839v2.84h2.839z"/><path d="M34.065 5.677h-2.84v2.84h2.84zm8.515 0h-2.838v2.84h2.839z"/><path d="M45.42 5.677h-2.84v2.84h2.84zm5.677 0h-2.839v2.84h2.839zm11.355 0h-2.84v2.84h2.84zm5.677 0H65.29v2.84h2.839zm17.032 0h-2.838v2.84h2.838zM5.677 8.516H2.84v2.839h2.838zm5.678 0H8.516v2.839h2.839z"/><path d="M14.194 8.516h-2.84v2.839h2.84z"/><path d="M17.032 8.516h-2.838v2.839h2.838zm5.678 0h-2.84v2.839h2.839zm5.677 0h-2.839v2.839h2.84z"/><path d="M31.226 8.516h-2.839v2.839h2.839zm5.677 0h-2.839v2.839h2.84z"/><path d="M39.742 8.516h-2.839v2.839h2.839zm5.678 0h-2.84v2.839h2.84zm2.838 0H45.42v2.839h2.84zm5.677 0h-2.838v2.839h2.838zm5.678 0h-2.839v2.839h2.839z"/><path d="M62.452 8.516h-2.84v2.839h2.84zm5.677 0H65.29v2.839h2.839zm5.677 0h-2.838v2.839h2.838zm2.839 0h-2.839v2.839h2.84z"/><path d="M79.484 8.516h-2.839v2.839h2.839zm5.677 0h-2.838v2.839h2.838zM5.677 11.355H2.84v2.839h2.838zm5.678 0H8.516v2.839h2.839z"/><path d="M14.194 11.355h-2.84v2.839h2.84z"/><path d="M17.032 11.355h-2.838v2.839h2.838zm5.678 0h-2.84v2.839h2.839zm8.516 0h-2.839v2.839h2.839zm5.677 0h-2.839v2.839h2.84zm5.677 0h-2.838v2.839h2.839z"/><path d="M45.42 11.355h-2.84v2.839h2.84zm2.838 0H45.42v2.839h2.84zm8.516 0h-2.839v2.839h2.84z"/><path d="M59.613 11.355h-2.839v2.839h2.839zm8.516 0H65.29v2.839h2.839zm5.677 0h-2.838v2.839h2.838zm2.839 0h-2.839v2.839h2.84z"/><path d="M79.484 11.355h-2.839v2.839h2.839zm5.677 0h-2.838v2.839h2.838zM5.677 14.194H2.84v2.838h2.838zm5.678 0H8.516v2.838h2.839z"/><path d="M14.194 14.194h-2.84v2.838h2.84z"/><path d="M17.032 14.194h-2.838v2.838h2.838zm5.678 0h-2.84v2.838h2.839zm5.677 0h-2.839v2.838h2.84zm5.678 0h-2.84v2.838h2.84zm8.515 0h-2.838v2.838h2.839z"/><path d="M45.42 14.194h-2.84v2.838h2.84zm5.677 0h-2.839v2.838h2.839zm5.677 0h-2.839v2.838h2.84zm11.355 0H65.29v2.838h2.839zm5.677 0h-2.838v2.838h2.838zm2.839 0h-2.839v2.838h2.84z"/><path d="M79.484 14.194h-2.839v2.838h2.839zm5.677 0h-2.838v2.838h2.838zM5.677 17.032H2.84v2.839h2.838zm17.033 0h-2.84v2.839h2.839zm5.677 0h-2.839v2.839h2.84zm5.678 0h-2.84v2.839h2.84zm8.515 0h-2.838v2.839h2.839z"/><path d="M45.42 17.032h-2.84v2.839h2.84zm5.677 0h-2.839v2.839h2.839zm5.677 0h-2.839v2.839h2.84z"/><path d="M59.613 17.032h-2.839v2.839h2.839zm8.516 0H65.29v2.839h2.839zm17.032 0h-2.838v2.839h2.838zM5.677 19.871H2.84v2.839h2.838z"/><path d="M8.516 19.871H5.677v2.839h2.84z"/><path d="M11.355 19.871H8.516v2.839h2.839z"/><path d="M14.194 19.871h-2.84v2.839h2.84z"/><path d="M17.032 19.871h-2.838v2.839h2.838zm2.839 0h-2.839v2.839h2.839z"/><path d="M22.71 19.871h-2.84v2.839h2.839zm5.677 0h-2.839v2.839h2.84zm5.678 0h-2.84v2.839h2.84zm5.677 0h-2.839v2.839h2.839zm5.678 0h-2.84v2.839h2.84zm5.677 0h-2.839v2.839h2.839zm5.677 0h-2.839v2.839h2.84zm5.678 0h-2.84v2.839h2.84zm5.677 0H65.29v2.839h2.839zm2.839 0h-2.839v2.839h2.839zm2.838 0h-2.838v2.839h2.838zm2.839 0h-2.839v2.839h2.84z"/><path d="M79.484 19.871h-2.839v2.839h2.839z"/><path d="M82.323 19.871h-2.84v2.839h2.84zm2.838 0h-2.838v2.839h2.838zM42.58 22.71h-2.838v2.838h2.839z"/><path d="M45.42 22.71h-2.84v2.838h2.84zm2.838 0H45.42v2.838h2.84z"/><path d="M51.097 22.71h-2.839v2.838h2.839zm2.838 0h-2.838v2.838h2.838zm2.839 0h-2.839v2.838h2.84zm5.678 0h-2.84v2.838h2.84zM8.516 25.548H5.677v2.84h2.84zm8.516 0h-2.838v2.84h2.838zm5.678 0h-2.84v2.84h2.839zm5.677 0h-2.839v2.84h2.84zm11.355 0h-2.839v2.84h2.839z"/><path d="M51.097 25.548h-2.839v2.84h2.839zm5.677 0h-2.839v2.84h2.84z"/><path d="M59.613 25.548h-2.839v2.84h2.839zm5.677 0h-2.838v2.84h2.838zm5.678 0h-2.839v2.84h2.839zm2.838 0h-2.838v2.84h2.838zm5.678 0h-2.839v2.84h2.839zM5.677 28.387H2.84v2.839h2.838z"/><path d="M8.516 28.387H5.677v2.839h2.84z"/><path d="M11.355 28.387H8.516v2.839h2.839zm17.032 0h-2.839v2.839h2.84zm11.355 0h-2.839v2.839h2.839zm8.516 0H45.42v2.839h2.84z"/><path d="M51.097 28.387h-2.839v2.839h2.839zm2.838 0h-2.838v2.839h2.838zm5.678 0h-2.839v2.839h2.839z"/><path d="M62.452 28.387h-2.84v2.839h2.84zm5.677 0H65.29v2.839h2.839zm2.839 0h-2.839v2.839h2.839zm2.838 0h-2.838v2.839h2.838zm8.517 0h-2.84v2.839h2.84zm2.838 0h-2.838v2.839h2.838zM8.516 31.226H5.677v2.839h2.84zm5.678 0h-2.84v2.839h2.84zm8.516 0h-2.84v2.839h2.839zm2.838 0H22.71v2.839h2.838zm8.517 0h-2.84v2.839h2.84zm5.677 0h-2.839v2.839h2.839zm2.838 0h-2.838v2.839h2.839z"/><path d="M45.42 31.226h-2.84v2.839h2.84zm8.515 0h-2.838v2.839h2.838zm8.517 0h-2.84v2.839h2.84zm8.516 0h-2.839v2.839h2.839zm2.838 0h-2.838v2.839h2.838zm2.839 0h-2.839v2.839h2.84z"/><path d="M79.484 31.226h-2.839v2.839h2.839zm5.677 0h-2.838v2.839h2.838zM8.516 34.065H5.677v2.838h2.84zm8.516 0h-2.838v2.838h2.838zm11.355 0h-2.839v2.838h2.84zm11.355 0h-2.839v2.838h2.839zm5.678 0h-2.84v2.838h2.84zm8.515 0h-2.838v2.838h2.838zm2.839 0h-2.839v2.838h2.84zm14.194 0h-2.839v2.838h2.839zm5.677 0h-2.839v2.838h2.84zm5.678 0h-2.84v2.838h2.84zm2.838 0h-2.838v2.838h2.838zM22.71 36.903h-2.84v2.839h2.839zm2.838 0H22.71v2.839h2.838zm2.839 0h-2.839v2.839h2.84z"/><path d="M31.226 36.903h-2.839v2.839h2.839zm5.677 0h-2.839v2.839h2.84zm11.355 0H45.42v2.839h2.84zm5.677 0h-2.838v2.839h2.838zm5.678 0h-2.839v2.839h2.839z"/><path d="M62.452 36.903h-2.84v2.839h2.84zm14.193 0h-2.839v2.839h2.84zm8.516 0h-2.838v2.839h2.838zm-70.967 2.839h-2.84v2.839h2.84zm14.193 0h-2.839v2.839h2.84zm8.516 0h-2.839v2.839h2.84zm5.677 0h-2.838v2.839h2.839z"/><path d="M45.42 39.742h-2.84v2.839h2.84zm5.677 0h-2.839v2.839h2.839zm2.838 0h-2.838v2.839h2.838zm2.839 0h-2.839v2.839h2.84zm11.355 0H65.29v2.839h2.839zm5.677 0h-2.838v2.839h2.838zm5.678 0h-2.839v2.839h2.839zm5.677 0h-2.838v2.839h2.838zM11.355 42.58H8.516v2.84h2.839zm8.516 0h-2.839v2.84h2.839z"/><path d="M22.71 42.58h-2.84v2.84h2.839zm2.838 0H22.71v2.84h2.838zm5.678 0h-2.839v2.84h2.839z"/><path d="M34.065 42.58h-2.84v2.84h2.84z"/><path d="M36.903 42.58h-2.839v2.84h2.84zm5.677 0h-2.838v2.84h2.839zm5.678 0H45.42v2.84h2.84zm8.516 0h-2.839v2.84h2.84zm11.355 0H65.29v2.84h2.839zm2.839 0h-2.839v2.84h2.839zm2.838 0h-2.838v2.84h2.838zm8.517 0h-2.84v2.84h2.84zm2.838 0h-2.838v2.84h2.838zM5.677 45.42H2.84v2.838h2.838z"/><path d="M8.516 45.42H5.677v2.838h2.84z"/><path d="M11.355 45.42H8.516v2.838h2.839z"/><path d="M14.194 45.42h-2.84v2.838h2.84zm11.354 0H22.71v2.838h2.838zm5.678 0h-2.839v2.838h2.839z"/><path d="M34.065 45.42h-2.84v2.838h2.84z"/><path d="M36.903 45.42h-2.839v2.838h2.84z"/><path d="M39.742 45.42h-2.839v2.838h2.839zm5.678 0h-2.84v2.838h2.84zm5.677 0h-2.839v2.838h2.839zm8.516 0h-2.839v2.838h2.839z"/><path d="M62.452 45.42h-2.84v2.838h2.84zm8.516 0h-2.839v2.838h2.839zm2.838 0h-2.838v2.838h2.838zm2.839 0h-2.839v2.838h2.84zM8.516 48.258H5.677v2.839h2.84zm5.678 0h-2.84v2.839h2.84zM17.032 48.258h-2.838v2.839h2.838zm5.678 0h-2.84v2.839h2.839zm2.838 0H22.71v2.839h2.838zm2.839 0h-2.839v2.839h2.84z"/><path d="M31.226 48.258h-2.839v2.839h2.839zm11.354 0h-2.838v2.839h2.839z"/><path d="M45.42 48.258h-2.84v2.839h2.84zm5.677 0h-2.839v2.839h2.839zm11.355 0h-2.84v2.839h2.84zm2.838 0h-2.838v2.839h2.838zm5.678 0h-2.839v2.839h2.839zm11.355 0h-2.84v2.839h2.84zm2.838 0h-2.838v2.839h2.838zM5.677 51.097H2.84v2.839h2.838z"/><path d="M8.516 51.097H5.677v2.839h2.84z"/><path d="M11.355 51.097H8.516v2.839h2.839zm8.516 0h-2.839v2.839h2.839zm5.677 0H22.71v2.839h2.838zm2.839 0h-2.839v2.839h2.84z"/><path d="M31.226 51.097h-2.839v2.839h2.839zm5.677 0h-2.839v2.839h2.84zm8.517 0h-2.84v2.839h2.84zm8.515 0h-2.838v2.839h2.838zm2.839 0h-2.839v2.839h2.84z"/><path d="M59.613 51.097h-2.839v2.839h2.839zm8.516 0H65.29v2.839h2.839zm2.839 0h-2.839v2.839h2.839zm2.838 0h-2.838v2.839h2.838zm2.839 0h-2.839v2.839h2.84zm8.516 0h-2.838v2.839h2.838zm-73.806 2.838H8.516v2.84h2.839z"/><path d="M14.194 53.935h-2.84v2.84h2.84z"/><path d="M17.032 53.935h-2.838v2.84h2.838zm2.839 0h-2.839v2.84h2.839z"/><path d="M22.71 53.935h-2.84v2.84h2.839zm8.516 0h-2.839v2.84h2.839zm5.677 0h-2.839v2.84h2.84zm5.677 0h-2.838v2.84h2.839z"/><path d="M45.42 53.935h-2.84v2.84h2.84zm2.838 0H45.42v2.84h2.84zm8.516 0h-2.839v2.84h2.84z"/><path d="M59.613 53.935h-2.839v2.84h2.839zm14.193 0h-2.838v2.84h2.838zm11.355 0h-2.838v2.84h2.838zm-73.806 2.839H8.516v2.839h2.839zm5.677 0h-2.838v2.839h2.838zm8.516 0H22.71v2.839h2.838zm5.678 0h-2.839v2.839h2.839z"/><path d="M34.065 56.774h-2.84v2.839h2.84zm14.193 0H45.42v2.839h2.84z"/><path d="M51.097 56.774h-2.839v2.839h2.839zm2.838 0h-2.838v2.839h2.838zm5.678 0h-2.839v2.839h2.839z"/><path d="M62.452 56.774h-2.84v2.839h2.84zm19.871 0h-2.84v2.839h2.84zm2.838 0h-2.838v2.839h2.838zM5.677 59.613H2.84v2.839h2.838z"/><path d="M8.516 59.613H5.677v2.839h2.84z"/><path d="M11.355 59.613H8.516v2.839h2.839zm11.355 0h-2.84v2.839h2.839zm2.838 0H22.71v2.839h2.838zm8.517 0h-2.84v2.839h2.84z"/><path d="M36.903 59.613h-2.839v2.839h2.84zm5.677 0h-2.838v2.839h2.839z"/><path d="M45.42 59.613h-2.84v2.839h2.84zm5.677 0h-2.839v2.839h2.839zm2.838 0h-2.838v2.839h2.838zm8.517 0h-2.84v2.839h2.84zm2.838 0h-2.838v2.839h2.838zm2.839 0H65.29v2.839h2.839zm2.839 0h-2.839v2.839h2.839zm2.838 0h-2.838v2.839h2.838zm11.355 0h-2.838v2.839h2.838zm-56.774 2.839h-2.839v2.838h2.84zm14.193 0h-2.838v2.838h2.839zm5.678 0H45.42v2.838h2.84z"/><path d="M51.097 62.452h-2.839v2.838h2.839zm5.677 0h-2.839v2.838h2.84z"/><path d="M59.613 62.452h-2.839v2.838h2.839z"/><path d="M62.452 62.452h-2.84v2.838h2.84zm11.354 0h-2.838v2.838h2.838zm5.678 0h-2.839v2.838h2.839zm5.677 0h-2.838v2.838h2.838zM5.677 65.29H2.84v2.839h2.838z"/><path d="M8.516 65.29H5.677v2.839h2.84z"/><path d="M11.355 65.29H8.516v2.839h2.839z"/><path d="M14.194 65.29h-2.84v2.839h2.84z"/><path d="M17.032 65.29h-2.838v2.839h2.838zm2.839 0h-2.839v2.839h2.839z"/><path d="M22.71 65.29h-2.84v2.839h2.839zm11.355 0h-2.84v2.839h2.84zm8.515 0h-2.838v2.839h2.839zm5.678 0H45.42v2.839h2.84z"/><path d="M51.097 65.29h-2.839v2.839h2.839zm2.838 0h-2.838v2.839h2.838zm5.678 0h-2.839v2.839h2.839z"/><path d="M62.452 65.29h-2.84v2.839h2.84zm5.677 0H65.29v2.839h2.839zm5.677 0h-2.838v2.839h2.838zm11.355 0h-2.838v2.839h2.838zM5.677 68.129H2.84v2.839h2.838zm17.033 0h-2.84v2.839h2.839zm11.355 0h-2.84v2.839h2.84z"/><path d="M36.903 68.129h-2.839v2.839h2.84zm8.517 0h-2.84v2.839h2.84zm8.515 0h-2.838v2.839h2.838zm2.839 0h-2.839v2.839h2.84z"/><path d="M59.613 68.129h-2.839v2.839h2.839z"/><path d="M62.452 68.129h-2.84v2.839h2.84zm11.354 0h-2.838v2.839h2.838zm2.839 0h-2.839v2.839h2.84zm5.678 0h-2.84v2.839h2.84zm2.838 0h-2.838v2.839h2.838zM5.677 70.968H2.84v2.838h2.838zm5.678 0H8.516v2.838h2.839z"/><path d="M14.194 70.968h-2.84v2.838h2.84z"/><path d="M17.032 70.968h-2.838v2.838h2.838zm5.678 0h-2.84v2.838h2.839zm5.677 0h-2.839v2.838h2.84z"/><path d="M31.226 70.968h-2.839v2.838h2.839z"/><path d="M34.065 70.968h-2.84v2.838h2.84z"/><path d="M36.903 70.968h-2.839v2.838h2.84zm5.677 0h-2.838v2.838h2.839z"/><path d="M45.42 70.968h-2.84v2.838h2.84zm2.838 0H45.42v2.838h2.84zm8.516 0h-2.839v2.838h2.84z"/><path d="M59.613 70.968h-2.839v2.838h2.839z"/><path d="M62.452 70.968h-2.84v2.838h2.84zm2.838 0h-2.838v2.838h2.838zm2.839 0H65.29v2.838h2.839zm2.839 0h-2.839v2.838h2.839zm2.838 0h-2.838v2.838h2.838zm8.517 0h-2.84v2.838h2.84zM5.677 73.806H2.84v2.84h2.838zm5.678 0H8.516v2.84h2.839z"/><path d="M14.194 73.806h-2.84v2.84h2.84z"/><path d="M17.032 73.806h-2.838v2.84h2.838zm5.678 0h-2.84v2.84h2.839zm8.516 0h-2.839v2.84h2.839z"/><path d="M34.065 73.806h-2.84v2.84h2.84z"/><path d="M36.903 73.806h-2.839v2.84h2.84zm8.517 0h-2.84v2.84h2.84zm5.677 0h-2.839v2.84h2.839zm2.838 0h-2.838v2.84h2.838zm11.355 0h-2.838v2.84h2.838zm5.678 0h-2.839v2.84h2.839zm8.516 0h-2.839v2.84h2.839z"/><path d="M82.323 73.806h-2.84v2.84h2.84zM5.677 76.645H2.84v2.839h2.838zm5.678 0H8.516v2.839h2.839z"/><path d="M14.194 76.645h-2.84v2.839h2.84z"/><path d="M17.032 76.645h-2.838v2.839h2.838zm5.678 0h-2.84v2.839h2.839zm11.355 0h-2.84v2.839h2.84zm17.032 0h-2.839v2.839h2.839zm8.516 0h-2.839v2.839h2.839z"/><path d="M62.452 76.645h-2.84v2.839h2.84zm2.838 0h-2.838v2.839h2.838zm5.678 0h-2.839v2.839h2.839zm5.677 0h-2.839v2.839h2.84zm5.678 0h-2.84v2.839h2.84zm2.838 0h-2.838v2.839h2.838zM5.677 79.484H2.84v2.839h2.838zm17.033 0h-2.84v2.839h2.839zm5.677 0h-2.839v2.839h2.84z"/><path d="M31.226 79.484h-2.839v2.839h2.839zm22.709 0h-2.838v2.839h2.838zm2.839 0h-2.839v2.839h2.84zm8.516 0h-2.838v2.839h2.838zm5.678 0h-2.839v2.839h2.839zm5.677 0h-2.839v2.839h2.84zm5.678 0h-2.84v2.839h2.84zm2.838 0h-2.838v2.839h2.838zM5.677 82.323H2.84v2.838h2.838z"/><path d="M8.516 82.323H5.677v2.838h2.84z"/><path d="M11.355 82.323H8.516v2.838h2.839z"/><path d="M14.194 82.323h-2.84v2.838h2.84z"/><path d="M17.032 82.323h-2.838v2.838h2.838zm2.839 0h-2.839v2.838h2.839z"/><path d="M22.71 82.323h-2.84v2.838h2.839zm14.193 0h-2.839v2.838h2.84zm11.355 0H45.42v2.838h2.84zm5.677 0h-2.838v2.838h2.838zm2.839 0h-2.839v2.838h2.84z"/><path d="M59.613 82.323h-2.839v2.838h2.839z"/><path d="M62.452 82.323h-2.84v2.838h2.84zm2.838 0h-2.838v2.838h2.838zm2.839 0H65.29v2.838h2.839zm5.677 0h-2.838v2.838h2.838zm8.517 0h-2.84v2.838h2.84z"/></g></svg>